<?xml version="1.0" encoding="UTF-8" standalone="no"?>
<svg
   class="fl-svgdocument"
   overflow="hidden"
   data-bbox="0.000004309062205720693 99.06037244054369 511.9999874725181 285.7480576442513"
   data-svgdocument=""
   viewBox="0 0 125.98621 176.76848"
   version="1.1"
   id="svg22"
   sodipodi:docname="result.svg"
   width="125.98621"
   height="176.76848"
   inkscape:version="1.3 (0e150ed6c4, 2023-07-21)"
   xmlns:inkscape="http://www.inkscape.org/namespaces/inkscape"
   xmlns:sodipodi="http://sodipodi.sourceforge.net/DTD/sodipodi-0.dtd"
   xmlns="http://www.w3.org/2000/svg"
   xmlns:svg="http://www.w3.org/2000/svg">
  <defs
     id="defs22" />
  <sodipodi:namedview
     id="namedview22"
     pagecolor="#ffffff"
     bordercolor="#000000"
     borderopacity="0.25"
     inkscape:showpageshadow="2"
     inkscape:pageopacity="0.0"
     inkscape:pagecheckerboard="0"
     inkscape:deskcolor="#d1d1d1"
     inkscape:zoom="1.5371094"
     inkscape:cx="62.780178"
     inkscape:cy="49.768742"
     inkscape:window-width="1920"
     inkscape:window-height="1001"
     inkscape:window-x="-9"
     inkscape:window-y="-9"
     inkscape:window-maximized="1"
     inkscape:current-layer="svg22" />
  <g
     transform="matrix(0.8125,0,0,0.8125,-146.99989,-52.704469)"
     font="medium sans-serif"
     shape-rendering="auto"
     text-decoration="none"
     text-rendering="auto"
     id="g21"
     style="text-decoration:none;text-decoration-line:none;text-decoration-style:solid;text-decoration-color:#000000">
    <path
       transform="matrix(6.7827,0,0,6.7827,150.21,-6847.2)"
       d="m 25.672,1035.9 a 0.50005,0.49991 0 0 0 -0.4473,0.6697 c 1.3248,3.8683 0.095,8.1465 -3.0801,10.724 -3.1751,2.5775 -7.6162,2.8992 -11.131,0.8084 -3.5147,-2.0907 -5.3487,-6.146 -4.5977,-10.165 a 0.50064,0.5005 0 0 0 -0.9843,-0.1835 c -0.8275,4.4279 1.1982,8.9045 5.0703,11.208 3.872,2.3033 8.7754,1.9487 12.273,-0.8904 3.498,-2.8392 4.854,-7.5632 3.3945,-11.825 a 0.50005,0.49991 0 0 0 -0.498,-0.3456 z"
       color="#000000"
       color-interpolation="srgb"
       color-interpolation-filters="linearrgb"
       color-rendering="auto"
       fill="#0e1e40"
       image-rendering="auto"
       overflow="visible"
       stroke-linecap="round"
       stroke-linejoin="round"
       style="text-indent:0px;text-transform:none;white-space:normal;isolation:auto;mix-blend-mode:normal"
       id="path1" />
    <path
       transform="matrix(6.7827,0,0,6.7827,149.03,-6848.3)"
       d="m 14.961,1038.3 a 0.50005,0.49991 0 0 0 -0.033,0 c -4.0272,0.4428 -7.2612,3.3116 -7.8378,7.0294 a 0.50005,0.49991 0 1 0 0.9882,0.1523 c 0.5017,-3.2341 3.339,-5.7898 6.959,-6.1877 a 0.50005,0.49991 0 0 0 -0.076,-0.9959 z"
       color="#000000"
       color-interpolation="srgb"
       color-interpolation-filters="linearrgb"
       color-rendering="auto"
       fill="#0e1e40"
       image-rendering="auto"
       overflow="visible"
       stroke-linecap="round"
       stroke-linejoin="round"
       style="text-indent:0px;text-transform:none;white-space:normal;isolation:auto;mix-blend-mode:normal"
       id="path2" />
    <path
       transform="matrix(6.7827,0,0,6.7827,146.18,-6855.2)"
       d="m 16,1023.1 c -1.7589,0 -4.8672,0.7634 -4.8672,0.7634 l -0.3418,0.082 -0.289,2.5989 0.9941,0.1094 0.209,-1.8726 c 0.4087,-0.093 2.9541,-0.6814 4.2949,-0.6814 1.3403,0 3.8802,0.5882 4.291,0.6814 l 0.211,2.1186 0.9941,-0.1 -0.2852,-2.8548 -0.3457,-0.082 c 0,0 -3.1062,-0.7634 -4.8652,-0.7634 z"
       color="#000000"
       color-interpolation="srgb"
       color-interpolation-filters="linearrgb"
       color-rendering="auto"
       fill="#68c2e8"
       fill-rule="evenodd"
       image-rendering="auto"
       overflow="visible"
       stroke-width="1px"
       style="text-indent:0px;text-transform:none;white-space:normal;isolation:auto;mix-blend-mode:normal"
       id="path3" />
    <path
       transform="matrix(6.7827,0,0,6.7827,146.89,-6856.2)"
       d="m 16.002,1020.4 a 0.50005,0.49991 0 0 0 -0.1524,0.023 l -8,2.515 a 0.50005,0.49991 0 0 0 0.014,0.9586 l 3.5,0.9842 0.2715,-0.9627 -0.5,-0.1405 -1,-0.2811 -0.3867,-0.1094 6.2519,-1.9644 6.25,1.9644 -0.3867,0.1094 -1,0.2811 -0.5,0.1405 0.2715,0.9627 3.5,-0.9842 a 0.50005,0.49991 0 0 0 0.014,-0.9586 l -8,-2.515 a 0.50005,0.49991 0 0 0 -0.1465,-0.023 z"
       color="#000000"
       color-interpolation="srgb"
       color-interpolation-filters="linearrgb"
       color-rendering="auto"
       fill="#68c2e8"
       fill-rule="evenodd"
       image-rendering="auto"
       overflow="visible"
       stroke-linejoin="round"
       stroke-width="1px"
       style="text-indent:0px;text-transform:none;white-space:normal;isolation:auto;mix-blend-mode:normal"
       id="path4" />
    <path
       transform="matrix(6.7827,0,0,6.7827,153.66,-6856.3)"
       d="m 7.0021,1049.6 a 0.50005,0.49991 0 0 0 -0.4805,0.6443 l 0.4961,1.7359 a 0.50005,0.49991 0 1 0 0.9609,-0.2753 L 7.4825,1049.969 A 0.50005,0.49991 0 0 0 7.0021,1049.6 Z"
       color="#000000"
       color-interpolation="srgb"
       color-interpolation-filters="linearrgb"
       color-rendering="auto"
       fill="#68c2e8"
       fill-rule="evenodd"
       image-rendering="auto"
       overflow="visible"
       stroke-linecap="round"
       stroke-linejoin="round"
       stroke-width="1px"
       style="text-indent:0px;text-transform:none;white-space:normal;isolation:auto;mix-blend-mode:normal"
       id="path5" />
    <path
       transform="matrix(6.7827,0,0,6.7827,151.28,-6857.1)"
       d="m 8.7521,1049.6 a 0.50005,0.49991 0 0 0 -0.4805,0.6443 l 0.4961,1.7359 a 0.50005,0.49991 0 1 0 0.9609,-0.2753 L 9.2325,1049.969 A 0.50005,0.49991 0 0 0 8.7521,1049.6 Z"
       color="#000000"
       color-interpolation="srgb"
       color-interpolation-filters="linearrgb"
       color-rendering="auto"
       fill="#68c2e8"
       fill-rule="evenodd"
       image-rendering="auto"
       overflow="visible"
       stroke-linecap="round"
       stroke-linejoin="round"
       stroke-width="1px"
       style="text-indent:0px;text-transform:none;white-space:normal;isolation:auto;mix-blend-mode:normal"
       id="path6" />
    <path
       transform="matrix(6.7827,0,0,6.7827,149.45,-6856.3)"
       d="m 10.502,1049.6 a 0.50005,0.49991 0 0 0 -0.4805,0.6443 l 0.4961,1.7359 a 0.50005,0.49991 0 1 0 0.9609,-0.2753 l -0.4961,-1.7359 A 0.50005,0.49991 0 0 0 10.502,1049.6 Z"
       color="#000000"
       color-interpolation="srgb"
       color-interpolation-filters="linearrgb"
       color-rendering="auto"
       fill="#68c2e8"
       fill-rule="evenodd"
       image-rendering="auto"
       overflow="visible"
       stroke-linecap="round"
       stroke-linejoin="round"
       stroke-width="1px"
       style="text-indent:0px;text-transform:none;white-space:normal;isolation:auto;mix-blend-mode:normal"
       id="path7" />
    <path
       transform="matrix(6.7827,0,0,6.7827,147.03,-6855.4)"
       d="m 24.981,1049.6 a 0.50005,0.49991 0 0 0 -0.4629,0.369 l -0.4961,1.7359 a 0.50005,0.49991 0 1 0 0.9609,0.2753 l 0.4961,-1.7359 A 0.50005,0.49991 0 0 0 24.981,1049.6 Z"
       color="#000000"
       color-interpolation="srgb"
       color-interpolation-filters="linearrgb"
       color-rendering="auto"
       fill="#68c2e8"
       fill-rule="evenodd"
       image-rendering="auto"
       overflow="visible"
       stroke-linecap="round"
       stroke-linejoin="round"
       stroke-width="1px"
       style="text-indent:0px;text-transform:none;white-space:normal;isolation:auto;mix-blend-mode:normal"
       id="path8" />
    <path
       transform="matrix(6.7827,0,0,6.7827,148.6,-6855.4)"
       d="m 23.231,1049.6 a 0.50005,0.49991 0 0 0 -0.4629,0.369 l -0.4961,1.7359 a 0.50005,0.49991 0 1 0 0.9609,0.2753 l 0.4961,-1.7359 A 0.50005,0.49991 0 0 0 23.231,1049.6 Z"
       color="#000000"
       color-interpolation="srgb"
       color-interpolation-filters="linearrgb"
       color-rendering="auto"
       fill="#68c2e8"
       fill-rule="evenodd"
       image-rendering="auto"
       overflow="visible"
       stroke-linecap="round"
       stroke-linejoin="round"
       stroke-width="1px"
       style="text-indent:0px;text-transform:none;white-space:normal;isolation:auto;mix-blend-mode:normal"
       id="path9" />
    <path
       transform="matrix(6.7827,0,0,6.7827,149.61,-6855.4)"
       d="m 21.481,1049.6 a 0.50005,0.49991 0 0 0 -0.4629,0.369 l -0.4961,1.7359 a 0.50005,0.49991 0 1 0 0.9609,0.2753 l 0.4961,-1.7359 A 0.50005,0.49991 0 0 0 21.481,1049.6 Z"
       color="#000000"
       color-interpolation="srgb"
       color-interpolation-filters="linearrgb"
       color-rendering="auto"
       fill="#68c2e8"
       fill-rule="evenodd"
       image-rendering="auto"
       overflow="visible"
       stroke-linecap="round"
       stroke-linejoin="round"
       stroke-width="1px"
       style="text-indent:0px;text-transform:none;white-space:normal;isolation:auto;mix-blend-mode:normal"
       id="path10" />
    <path
       transform="matrix(6.7827,0,0,6.7827,155.23,-6849.2)"
       d="m 17.098,1038.3 a 0.50005,0.49991 0 0 0 -0.022,0.9959 c 2.7081,0.3333 5.0294,1.8961 6.1738,4.1199 a 0.50005,0.49991 0 1 0 0.8887,-0.4569 c -1.3083,-2.5422 -3.9261,-4.2838 -6.9414,-4.655 a 0.50005,0.49991 0 0 0 -0.1,0 z"
       color="#000000"
       color-interpolation="srgb"
       color-interpolation-filters="linearrgb"
       color-rendering="auto"
       fill="#0e1e40"
       image-rendering="auto"
       overflow="visible"
       stroke-linecap="round"
       stroke-linejoin="round"
       style="text-indent:0px;text-transform:none;white-space:normal;isolation:auto;mix-blend-mode:normal"
       id="path11" />
    <path
       transform="matrix(6.7827,0,0,6.7827,152.84,-6849.6)"
       d="m 10,1028.4 c -2.7555,0 -5,2.2439 -5,4.9987 0,2.7547 2.2445,4.9986 5,4.9986 2.7555,0 5,-2.2439 5,-4.9986 0,-2.7548 -2.2445,-4.9987 -5,-4.9987 z m 0,0.9998 c 2.2151,0 4,1.7844 4,3.9989 0,2.2145 -1.7849,3.9989 -4,3.9989 -2.215,0 -4,-1.7844 -4,-3.9989 0,-2.2145 1.785,-3.9989 4,-3.9989 z"
       color="#000000"
       color-interpolation="srgb"
       color-interpolation-filters="linearrgb"
       color-rendering="auto"
       fill="#0e1e40"
       image-rendering="auto"
       overflow="visible"
       stroke-linejoin="round"
       style="text-indent:0px;text-transform:none;white-space:normal;isolation:auto;mix-blend-mode:normal"
       id="path12" />
    <path
       transform="matrix(6.7827,0,0,6.7827,149.46,-6849.6)"
       d="m 21.877,1030.4 c -0.6751,0.028 -1.3421,0.2824 -1.875,0.7576 a 0.50006,0.49992 0 1 0 0.666,0.7459 c 0.7143,-0.637 1.7708,-0.6816 2.5351,-0.1055 0.7643,0.5762 1.0138,1.6044 0.5977,2.4661 -0.4161,0.8618 -1.3761,1.306 -2.3027,1.0662 -0.9267,-0.2398 -1.5506,-1.0928 -1.4961,-2.0483 a 0.50005,0.49991 0 1 0 -0.9981,-0.057 c -0.081,1.4254 0.8616,2.7156 2.2442,3.0734 1.3825,0.3577 2.8323,-0.3134 3.4531,-1.5992 0.6208,-1.2858 0.2438,-2.8386 -0.8965,-3.6982 -0.5702,-0.4299 -1.2527,-0.6292 -1.9277,-0.6014 z"
       color="#000000"
       color-interpolation="srgb"
       color-interpolation-filters="linearrgb"
       color-rendering="auto"
       fill="#68c2e8"
       image-rendering="auto"
       overflow="visible"
       stroke-linecap="round"
       stroke-linejoin="round"
       style="text-indent:0px;text-transform:none;white-space:normal;isolation:auto;mix-blend-mode:normal"
       id="path13" />
    <path
       transform="matrix(6.7827,0,0,6.7827,149.6,-6851.6)"
       d="m 22,1032 a 0.50104001,0.5009 0 1 0 0,1.0018 c 0.1895,0 0.332,0.1424 0.332,0.3319 a 0.501,0.50086 0 1 0 1.002,0 C 23.334,1032.603 22.7309,1032 22,1032 Z"
       color="#000000"
       color-interpolation="srgb"
       color-interpolation-filters="linearrgb"
       color-rendering="auto"
       fill="#68c2e8"
       image-rendering="auto"
       overflow="visible"
       stroke-linecap="round"
       stroke-linejoin="round"
       stroke-width="1.0016"
       style="text-indent:0px;text-transform:none;white-space:normal;isolation:auto;mix-blend-mode:normal"
       id="path14" />
    <path
       transform="matrix(6.7827,0,0,6.7827,152.85,-6849.6)"
       d="m 22,1028.4 c -2.7555,0 -5,2.2439 -5,4.9987 0,2.7547 2.2445,4.9986 5,4.9986 2.7555,0 5,-2.2439 5,-4.9986 0,-2.7548 -2.2445,-4.9987 -5,-4.9987 z m 0,0.9998 c 2.2151,0 4,1.7844 4,3.9989 0,2.2145 -1.7849,3.9989 -4,3.9989 -2.215,0 -4,-1.7844 -4,-3.9989 0,-2.2145 1.785,-3.9989 4,-3.9989 z"
       color="#000000"
       color-interpolation="srgb"
       color-interpolation-filters="linearrgb"
       color-rendering="auto"
       fill="#0e1e40"
       image-rendering="auto"
       overflow="visible"
       stroke-linejoin="round"
       style="text-indent:0px;text-transform:none;white-space:normal;isolation:auto;mix-blend-mode:normal"
       id="path15" />
    <path
       transform="matrix(6.7827,0,0,6.7827,144.55,-6857.5)"
       d="m 8.5157,1024.8 c -0.8205,0 -1.4941,0.6792 -1.4941,1.4996 a 0.50005,0.49991 0 1 0 1,0 c 0,-0.2838 0.2177,-0.4999 0.4941,-0.4999 0.2763,0 0.4922,0.2161 0.4922,0.4999 0,0.1139 -0.014,0.2744 -0.031,0.3359 a 0.50005,0.49991 0 1 0 0.9629,0.2694 c 0.065,-0.2314 0.068,-0.4431 0.068,-0.6053 0,-0.8204 -0.6716,-1.4996 -1.4922,-1.4996 z"
       color="#000000"
       color-interpolation="srgb"
       color-interpolation-filters="linearrgb"
       color-rendering="auto"
       fill="#68c2e8"
       image-rendering="auto"
       overflow="visible"
       stroke-linecap="round"
       stroke-linejoin="round"
       style="text-indent:0px;text-transform:none;white-space:normal;isolation:auto;mix-blend-mode:normal"
       id="path16" />
    <path
       transform="matrix(6.7827,0,0,6.7827,142.93,-6857.7)"
       d="m 8.0001,1023.4 v 1.9994 h 1 V 1023.4 Z"
       color="#000000"
       color-interpolation="srgb"
       color-interpolation-filters="linearrgb"
       color-rendering="auto"
       fill="#68c2e8"
       fill-rule="evenodd"
       image-rendering="auto"
       overflow="visible"
       stroke-width="1px"
       style="text-indent:0px;text-transform:none;white-space:normal;isolation:auto;mix-blend-mode:normal"
       id="path17" />
    <path
       transform="matrix(6.7827,0,0,6.7827,149.46,-6849.6)"
       d="m 9.629,1030.4 c -0.6739,0.084 -1.3199,0.3953 -1.8125,0.9177 a 0.50018709,0.50004708 0 1 0 0.7285,0.6854 c 0.6605,-0.7005 1.7171,-0.8333 2.5293,-0.3164 0.8123,0.517 1.1385,1.5305 0.7832,2.4252 -0.3553,0.8946 -1.2886,1.407 -2.2343,1.2261 -0.9458,-0.1807 -1.6231,-1.0016 -1.6231,-1.9642 a 0.50005,0.49991 0 1 0 -1,0 c 0,1.436 1.0247,2.6767 2.4356,2.9465 1.4108,0.2696 2.8215,-0.5048 3.3515,-1.8394 0.53,-1.3347 0.036,-2.8665 -1.1758,-3.6377 -0.6058,-0.3855 -1.3085,-0.5272 -1.9824,-0.4432 z"
       color="#000000"
       color-interpolation="srgb"
       color-interpolation-filters="linearrgb"
       color-rendering="auto"
       fill="#68c2e8"
       image-rendering="auto"
       overflow="visible"
       stroke-linecap="round"
       stroke-linejoin="round"
       style="text-indent:0px;text-transform:none;white-space:normal;isolation:auto;mix-blend-mode:normal"
       id="path18" />
    <path
       transform="matrix(6.7827,0,0,6.7827,150.41,-6850)"
       d="m 10,1032 a 0.50104001,0.5009 0 1 0 0,1.0018 c 0.1895,0 0.332,0.1424 0.332,0.3319 a 0.501,0.50086 0 1 0 1.002,0 C 11.334,1032.603 10.7309,1032 10,1032 Z"
       color="#000000"
       color-interpolation="srgb"
       color-interpolation-filters="linearrgb"
       color-rendering="auto"
       fill="#68c2e8"
       image-rendering="auto"
       overflow="visible"
       stroke-linecap="round"
       stroke-linejoin="round"
       stroke-width="1.0016"
       style="text-indent:0px;text-transform:none;white-space:normal;isolation:auto;mix-blend-mode:normal"
       id="path19" />
    <path
       transform="matrix(6.7827,0,0,6.7827,147.01,-6853.8)"
       d="m 5.5079,1025.6 a 0.50005,0.49991 0 0 0 -0.5078,0.4978 0.50005,0.49991 0 0 0 0,0.025 v 0.014 a 0.50005,0.49991 0 0 0 0,0.027 c 0,0.037 0.036,0.6998 0.1621,1.4957 0.065,0.4089 0.1529,0.8445 0.2793,1.2439 0.1264,0.3993 0.2729,0.7665 0.5625,1.0544 a 0.50005,0.49991 0 1 0 0.7051,-0.7088 c -0.072,-0.071 -0.2115,-0.321 -0.3144,-0.6463 -0.103,-0.3253 -0.1861,-0.7215 -0.2461,-1.0993 -0.06,-0.3773 -0.053,-0.4518 -0.076,-0.7147 0.4919,0.1745 0.9883,0.3787 1.6074,0.4764 2.0418,0.3227 4.0063,-0.3084 5.6523,0.125 0.3185,0.084 0.9063,0.3848 1.3711,0.6619 0.4649,0.2771 0.8262,0.5253 0.8262,0.5253 a 0.50005,0.49991 0 0 0 0.5332,0.023 c 0,0 0.4548,-0.2625 1.0352,-0.5526 0.5804,-0.2901 1.3022,-0.6036 1.7207,-0.6971 1.6232,-0.3623 3.5102,0.2017 5.4824,-0.084 0.6342,-0.092 1.1759,-0.2978 1.6582,-0.4589 0,0.2394 0.013,0.2996 -0.033,0.6737 -0.044,0.3653 -0.1187,0.763 -0.2324,1.1266 a 0.50037088,0.50024088 0 0 0 0.9551,0.2987 c 0.1383,-0.4424 0.2198,-0.8943 0.2695,-1.3043 0.1014,-0.8189 0.074,-1.4821 0.074,-1.4821 a 0.50005,0.49991 0 0 0 -0.6641,-0.4529 c 0,0 -1.5208,0.5132 -2.1699,0.6072 -1.6704,0.242 -3.5902,-0.3417 -5.5586,0.098 -0.6156,0.1374 -1.3401,0.4746 -1.9492,0.7791 -0.4558,0.2278 -0.651,0.3414 -0.8144,0.4334 -0.1441,-0.097 -0.2722,-0.1864 -0.6211,-0.3945 -0.4964,-0.2959 -1.0843,-0.6265 -1.627,-0.7692 -2.0295,-0.5344 -4.0385,0.1262 -5.7519,-0.1445 -0.6465,-0.1021 -2.1661,-0.6502 -2.1661,-0.6502 v 0 a 0.50005,0.49991 0 0 0 -0.168,-0.033 z"
       color="#000000"
       color-interpolation="srgb"
       color-interpolation-filters="linearrgb"
       color-rendering="auto"
       fill="#0e1e40"
       fill-rule="evenodd"
       image-rendering="auto"
       overflow="visible"
       stroke-linecap="round"
       stroke-linejoin="round"
       stroke-width="1px"
       style="text-indent:0px;text-transform:none;white-space:normal;isolation:auto;mix-blend-mode:normal"
       id="path20" />
    <path
       transform="matrix(6.7827,0,0,6.7827,151.02,-6849.6)"
       d="m 15.986,1035.4 a 0.50005,0.49991 0 0 0 -0.3378,0.1426 l -1.75,1.7163 a 0.50005,0.49991 0 0 0 -0.072,0.6229 l 1.75,2.7824 a 0.50005,0.49991 0 0 0 0.8457,0 l 1.75,-2.7824 a 0.50005,0.49991 0 0 0 -0.072,-0.6229 l -1.75,-1.7163 A 0.50005,0.49991 0 0 0 15.9866,1035.4 Z m 0.014,1.2009 1.1113,1.0895 -1.1132,1.769 -1.1114,-1.769 z"
       color="#000000"
       color-interpolation="srgb"
       color-interpolation-filters="linearrgb"
       color-rendering="auto"
       fill="#68c2e8"
       fill-rule="evenodd"
       image-rendering="auto"
       overflow="visible"
       stroke-linecap="round"
       stroke-linejoin="round"
       stroke-width="1px"
       style="text-indent:0px;text-transform:none;white-space:normal;isolation:auto;mix-blend-mode:normal"
       id="path21" />
  </g>
</svg>
